<svg version="1" xmlns="http://www.w3.org/2000/svg" width="500" height="369.109" viewBox="0 0 500 369.109"><path fill="#FFF" d="M54.1 14.666h391.8v340.39H54.1z"/><path fill="#F14728" d="M441.775 14.666H340.44L180.89 127.332h148.665l115.78 115.333-111.777 112.442h108.22c25.555 0 44.22-25.332 44.22-43.33V58.22c0-18.222-18.666-43.554-44.22-43.554z"/><path fill="#1F4FA3" d="M58.666 355.107h101.11l159.555-112.22H170.888L54.667 127.333 167.11 14.666H58.666c-25.778 0-44 25.332-44 43.776v253.555c0 17.778 18.222 43.11 44 43.11z"/><path fill="#F14728" d="M206.443 137.998H192.22l87.11 87.107c4.002 3.338 7.11 7.336 14 6.893h14.89l-87.555-86.89c-4-4.444-6.89-7.11-14.222-7.11z"/></svg>